<?xml version="1.0" encoding="utf-8"?>
<!-- Generator: Adobe Illustrator 22.0.0, SVG Export Plug-In . SVG Version: 6.00 Build 0)  -->
<svg version="1.1" id="Calque_1" xmlns="http://www.w3.org/2000/svg" xmlns:xlink="http://www.w3.org/1999/xlink" x="0px" y="0px"
	 viewBox="0 0 432 432" style="enable-background:new 0 0 432 432;" xml:space="preserve">
<style type="text/css">
	.st0{fill:#066938;}
	.st1{fill:#9F1E29;}
	.st2{fill:#571419;}
	.st3{fill:none;}
	.st4{fill:#C68448;}
	.st5{fill:#8C633A;}
	.st6{fill:#D79A5D;}
	.st7{fill:#A5C0DF;}
	.st8{fill:#36502D;}
	.st9{fill:#C8261D;}
	.st10{fill:#808181;}
	.st11{fill:#519C37;}
	.st12{fill:#FCEE69;}
	.st13{fill:#EC8C37;}
	.st14{fill:#5877B1;}
	.st15{fill:#7B1523;}
	.st16{fill:#4F0D1C;}
	.st17{fill:#BF333D;}
	.st18{fill:#E7373D;}
	.st19{fill:#972021;}
	.st20{fill:#F2F2F2;}
	.st21{fill:#F3D4AA;}
	.st22{fill:#A67D52;}
	.st23{fill:#B59063;}
	.st24{fill:#020203;}
	.st25{fill:#FFFFFF;}
	.st26{fill:#E7E6E6;}
	.st27{fill:#9A9999;}
	.st28{fill:#B4B4B4;}
	.st29{fill:#C9913E;}
	.st30{fill:#D6A14D;}
	.st31{fill:#E2A1BC;}
	.st32{fill:#C1292E;}
	.st33{fill:#82171C;}
	.st34{fill:#CDCCCC;}
	.st35{fill:#D06C5D;}
	.st36{fill:#79986F;}
	.st37{fill:#DAA405;}
	.st38{fill:#EDCBA9;}
	.st39{fill:#405045;}
	.st40{fill:#8B2F2F;}
	.st41{fill:#1D2E1C;}
	.st42{fill:#D4BB78;}
	.st43{fill:#3C1014;}
	.st44{fill:#731633;}
	.st45{fill:#3F0D26;}
	.st46{fill:#E3EBF8;}
	.st47{fill:#D2DFEF;}
	.st48{fill:#B88E5C;}
	.st49{fill:#A81735;}
	.st50{fill:#4AA8A8;}
	.st51{fill:#94B947;}
	.st52{fill:#A8C4D3;}
	.st53{fill:#9F1A18;}
	.st54{fill:#4F6325;}
	.st55{fill:#BAC463;}
	.st56{fill:#8C694B;}
	.st57{fill:#8A9A66;}
	.st58{fill:#DDDDC3;}
	.st59{fill:#3F668A;}
	.st60{fill:#1B1B1B;}
	.st61{fill:#FFF0BA;}
	.st62{fill:#C69C6C;}
	.st63{fill:#603914;}
	.st64{fill:#114923;}
	.st65{fill:#961F27;}
	.st66{fill:#BB870E;}
	.st67{fill:#C51720;}
	.st68{fill:#449494;}
	.st69{fill:#417675;}
	.st70{fill:#ABCFAF;}
	.st71{fill:#66B2B0;}
	.st72{fill:#F9B03D;}
	.st73{fill:#754D24;}
	.st74{fill:#F6F6F6;}
	.st75{fill:#BA181A;}
	.st76{fill:#AD191C;}
	.st77{fill:#161515;}
	.st78{fill:#1E1E1C;}
	.st79{fill:#0E472B;}
	.st80{fill:#D3C29D;}
	.st81{fill:#CC2717;}
	.st82{fill:#A81916;}
	.st83{fill:#805129;}
	.st84{fill:#F39323;}
	.st85{fill:#B56B20;}
	.st86{fill:#E52629;}
	.st87{fill:#7B9EC7;}
	.st88{fill:#48515A;}
	.st89{fill:#DED3C6;}
	.st90{fill:#3B444E;}
	.st91{fill:#6189B1;}
	.st92{fill:#97B8D7;}
	.st93{fill:#715038;}
	.st94{fill:#A3282E;}
	.st95{fill:#110506;}
	.st96{fill:#F3E4D4;}
	.st97{fill:#F4DCC9;}
	.st98{fill:#676767;}
	.st99{fill:#E0EDF3;}
	.st100{fill:#90443F;}
	.st101{fill:#989389;}
	.st102{fill:#F0DABE;}
	.st103{fill:#4F382A;}
	.st104{fill:#009245;}
	.st105{fill:#064928;}
</style>
<g>
	<g>
		<g>
			<g>
				<path class="st0" d="M182,338c-3.7,8.5-21.2,9.8-29.9,10s-8.5-16.4-13.4-16.8c-4.9-0.4-5.8,18.6-2.1,24.5
					c3.7,5.9,21.8,11.4,37.1,11.4s30,2.4,32.1-19.2C194.7,341.3,182,338,182,338z"/>
				<path class="st0" d="M245.5,338c3.7,8.5,21.2,9.8,29.9,10s8.5-16.4,13.4-16.8c4.9-0.4,5.8,18.6,2.1,24.5
					c-3.7,5.9-21.8,11.4-37.1,11.4s-30,2.4-32.1-19.2C232.8,341.3,245.5,338,245.5,338z"/>
			</g>
			<g>
				<path class="st24" d="M128.2,240.8c-4.1-9.4-12.6-17.1-16.8-13.5c-4.2,3.6,0.4,6.7-1.8,7.9c-2.2,1.3-6.3-10-11.1-5.9
					s-8.9,14.9,2.9,20.3s22.5,9,24.7,7.6C128.2,253.1,128.2,240.8,128.2,240.8z"/>
				<path class="st24" d="M298.2,240.8c4.1-9.4,12.6-17.1,16.8-13.5c4.2,3.6-0.4,6.7,1.8,7.9c2.2,1.3,6.3-10,11.1-5.9
					c4.8,4.1,8.9,14.9-2.9,20.3c-11.8,5.4-22.5,9-24.7,7.6C298.2,253.1,298.2,240.8,298.2,240.8z"/>
			</g>
			<g>
				<path class="st0" d="M145.1,155.6c-4.7-27.6,0.6-87.9,78.1-90.6s114.3,25.8,103.2,64.2c-4.7,0.5-6.1-21.2-11.4-28.4
					c-5.3-7.3-18.1-10.7-34.2-10.1s-29,8.2-1.8,53c-29.8-5.5-112.3,5.3-112.3,5.3L145.1,155.6z"/>
				<path class="st1" d="M140.4,181.3c-7.6,5.9-16.2-34.6-10.7-38.2c5.5-3.6,8,5.6,14.2,4.5c6.2-1.2,14.3-27,19-27.5
					s22.7,16,27,15.5c4.3-0.5,15.8-18.6,20.8-18.8c5-0.2,14.9,16.9,20.2,17s19.6-16.9,23.4-16.4c3.8,0.5,11.9,18.9,14.7,19.1
					c2.8,0.2,24.5-10.8,28-9.7c6.3,2-6.2,63.1-15.5,54.1s-34.2-26.8-75.1-22.9C165.6,162,143.4,179,140.4,181.3z"/>
				<circle class="st1" cx="326.4" cy="134.7" r="11.8"/>
			</g>
			<g>
				<path class="st1" d="M296.4,238.3c-3.4,4.4-31.8,26.8-44,31.9v-10.2l-38.6,7.2l-39.1-5.3l0.3,8.6c-11.6-4.3-41.4-27.7-44.9-32.3
					c-3.7-4.8-17.5,7.2-12.9,16.4c3.9,7.8,41.5,28.7,58.5,35l1.7,52.1l29.2,13l7.3-32.1l5,32.1l33.6-12.9v-52.8
					c17.6-7,53.1-26.9,56.9-34.4C313.9,245.5,300.1,233.6,296.4,238.3z"/>
				<path class="st0" d="M168.3,254.2c-4.9-1.1-14.4,18.5-8.3,22.1c6.1,3.6,13.6-5.5,15.5-5s4.2,14.9,7.7,14.7s11.6-12.7,17.2-12.5
					s10,11.6,13.3,12.5c3.3,0.8,8.3-11.6,13-11.6c4.7,0,11.6,14.1,16.1,13.3c4.4-0.8,7.5-15.7,10-16.7c2.5-1,11.9,5.4,14.9,4.3
					c3-1.1-4.4-24.6-8.9-23.2C220.9,261.4,210.9,263.9,168.3,254.2z"/>
			</g>
		</g>
		<g>
			<circle class="st1" cx="138.6" cy="332.1" r="5.1"/>
			<circle class="st1" cx="288.1" cy="332.1" r="5.1"/>
		</g>
	</g>
	<g>
		<path class="st21" d="M315.9,162.8c-8.4-2.3-20.6,10.4-26.9,23.5c-12.4-20.3-42.6-34.7-77.9-34.7c-36.2,0-67.1,15.1-78.8,36.3
			c-6.1-13.7-19-27.4-27.6-25.1c-10.2,2.8,7.2,16.3,6.4,26.6c-0.8,9.9-11.3,44.1,23.6,40.1c13.1,19.2,42.4,32.6,76.5,32.6
			c34,0,63.2-13.3,76.4-32.4c33,2.9,22.8-30.4,22-40.2C308.7,179.1,326.1,165.5,315.9,162.8z"/>
		<g>
			<g>
				<path class="st24" d="M202.8,216.1c1.1,2.8,2.2,4.9,5.5,5.2c2.5,0.3,5.9,0,7.4-2.3c0.9-1.3-1.2-2.5-2.1-1.2
					c-0.9,1.3-3.6,1.3-4.9,1.1c-2.3-0.3-2.8-1.6-3.5-3.5C204.5,214,202.2,214.6,202.8,216.1L202.8,216.1z"/>
			</g>
			<g>
				<path class="st24" d="M246.5,228c-1.4,3.1-2.8,6.4-5.4,8.7c-3.5,3.1-7.8,2.7-12.1,2.2c-1.5-0.2-1.5,2.2,0,2.4
					c4.4,0.5,8.9,0.8,12.7-1.9c3.4-2.5,5.3-6.4,6.9-10.2C249.2,227.8,247.1,226.6,246.5,228L246.5,228z"/>
			</g>
			<g>
				<ellipse class="st25" cx="188" cy="192.8" rx="10.1" ry="12.6"/>
				<ellipse class="st25" cx="235.2" cy="192.8" rx="10.1" ry="12.6"/>
				<circle class="st24" cx="193.7" cy="196.1" r="3.4"/>
				<circle class="st24" cx="229.3" cy="196.1" r="3.4"/>
			</g>
		</g>
	</g>
</g>
</svg>
