<?xml version="1.0" encoding="utf-8"?>
<!-- Generator: Adobe Illustrator 22.0.0, SVG Export Plug-In . SVG Version: 6.00 Build 0)  -->
<svg version="1.1" id="Calque_1" xmlns="http://www.w3.org/2000/svg" xmlns:xlink="http://www.w3.org/1999/xlink" x="0px" y="0px"
	 viewBox="0 0 432 432" style="enable-background:new 0 0 432 432;" xml:space="preserve">
<style type="text/css">
	.st0{fill:#100A13;}
	.st1{fill:#BB8B6A;}
	.st2{fill:#DDBEC9;}
	.st3{fill:#DFA1B6;}
	.st4{fill:#F2EDED;}
	.st5{fill:#B73A30;}
	.st6{fill:#21381D;}
	.st7{fill:#355932;}
	.st8{fill:#CB9742;}
	.st9{fill:#912A27;}
	.st10{fill:#CF394B;}
	.st11{fill:#E6E6E4;}
	.st12{fill:#191B1F;}
	.st13{fill:#5C8D4B;}
	.st14{fill:#263B2A;}
	.st15{fill:#C13462;}
	.st16{fill:#E5D758;}
	.st17{fill:#4D9F54;}
	.st18{fill:#C43537;}
	.st19{fill:#ECEAE5;}
	.st20{fill:#E2C2A2;}
	.st21{fill:#A8302D;}
	.st22{fill:#F5F4F4;}
	.st23{fill:#D5B392;}
	.st24{fill:#221F20;}
	.st25{fill:#F2F1F0;}
	.st26{fill:#1B3B1F;}
	.st27{fill:#295A33;}
	.st28{fill:#DCBB9E;}
	.st29{fill:#EDB9C5;}
	.st30{fill:#8E2927;}
	.st31{fill:#2D6942;}
	.st32{fill:#8E2B34;}
	.st33{fill:#490C19;}
	.st34{fill:#BE3430;}
	.st35{fill:#202124;}
	.st36{fill:#BDDFE1;}
	.st37{fill:#E6E5E4;}
	.st38{fill:#040304;}
	.st39{fill:#E9963E;}
	.st40{fill:#A98C7C;}
	.st41{fill:#8A6C5D;}
	.st42{fill:#242122;}
	.st43{fill:#FFFFFF;}
	.st44{fill:#C9363B;}
	.st45{fill:#A52F39;}
	.st46{fill:#93766B;}
	.st47{fill:#9B7F71;}
	.st48{fill:#103B24;}
	.st49{fill:#345730;}
	.st50{fill:#BBA585;}
	.st51{fill:#AF3134;}
	.st52{fill:#F2EDE5;}
	.st53{fill:#98BC53;}
	.st54{fill:#D7AB46;}
	.st55{fill:#BAA485;}
	.st56{fill:#47291D;}
	.st57{fill:#B2322F;}
	.st58{fill:#953129;}
	.st59{fill:#20090C;}
	.st60{fill:#E0D2CE;}
	.st61{fill:#DAAE47;}
	.st62{fill:#5B4533;}
	.st63{fill:#428C4D;}
	.st64{fill:#C7393E;}
	.st65{fill:#3B4824;}
	.st66{fill:#46572E;}
	.st67{fill:#C83631;}
	.st68{fill:#8E2926;}
	.st69{fill:#D2BB9F;}
	.st70{fill:#E6D7C6;}
	.st71{fill:#BDA284;}
	.st72{fill:#832529;}
	.st73{fill:#9F2E2B;}
	.st74{fill:#459558;}
	.st75{fill:#DB453F;}
	.st76{fill:#D5D9B9;}
	.st77{fill:#E6E6D6;}
	.st78{fill:#E6EDC3;}
	.st79{fill:#AFD9DF;}
	.st80{fill:#5BAFB9;}
	.st81{fill:#7F7165;}
	.st82{fill:#50433C;}
	.st83{fill:#B2B7A0;}
	.st84{fill:#B1977E;}
	.st85{fill:#D6B88D;}
	.st86{fill:#A07965;}
	.st87{fill:#A7A5A0;}
	.st88{fill:#979984;}
	.st89{fill:#4F4F4B;}
	.st90{fill:#646D74;}
	.st91{fill:#545B52;}
	.st92{fill:#915452;}
	.st93{fill:#623D3E;}
	.st94{fill:#4E423E;}
	.st95{fill:#978F87;}
	.st96{fill:#732E24;}
	.st97{fill:#8F2A27;}
	.st98{fill:#AA8750;}
	.st99{fill:#677565;}
	.st100{fill:#4F3717;}
	.st101{fill:#799375;}
	.st102{fill:#D07783;}
	.st103{fill:#9A4655;}
	.st104{fill:#ECC4CB;}
	.st105{fill:#B7B86F;}
	.st106{fill:#5A5D34;}
	.st107{fill:#D1A697;}
	.st108{fill:#CBBDA4;}
	.st109{fill:#A16560;}
	.st110{fill:#330024;}
	.st111{fill:#3C4A43;}
	.st112{fill:#631735;}
	.st113{fill:#6A474C;}
	.st114{fill:#E5BC9F;}
	.st115{fill:#E8D3CC;}
	.st116{fill:#D16C64;}
	.st117{fill:#749098;}
	.st118{fill:#E69598;}
</style>
<g>
	<g>
		<g>
			<g>
				<path class="st40" d="M252.4,173.2c22.1-33-3.9-35.2-15.9-14.5c-5.7-2.9-12.2-4.5-19.4-4.5c-7.8,0-14.9,1.9-20.9,5.3
					c-12.5-21.8-39.3-19.8-15.5,15c-12.7,19.8-12.2,39.8,4.8,60.4H247C263.5,214.4,265,192.3,252.4,173.2z"/>
			</g>
			<g>
				<g>
					<path class="st41" d="M170.7,108c-3.6-6.4,0.3-10.2,3.8-10.9c10.4-2.1,12-9.8,7.3-13.2c-7.6-5.6-17.5,28.8-12.9-9.5
						c1.3-10.7-8.6-13.6-7.8-2.8c2.7,34.9-12.3-7.1-18.8,0.5c-0.9,1.1-1,2.6-0.5,3.8c9.8,21.4,50.6,72.2,60.9,87.5
						c1.4,2,4.2,2.4,6.1,0.9C220.2,155,196,152.9,170.7,108z"/>
				</g>
				<g>
					<path class="st41" d="M261.5,108c3.6-6.4-0.3-10.2-3.8-10.9c-10.4-2.1-12-9.8-7.3-13.2c7.6-5.6,17.5,28.8,12.9-9.5
						c-1.3-10.7,8.6-13.6,7.8-2.8c-2.7,34.9,12.3-7.1,18.8,0.5c0.9,1.1,1,2.6,0.5,3.8c-9.8,21.4-50.6,72.2-60.9,87.5
						c-1.4,2-4.2,2.4-6.1,0.9C212,155,236.1,152.9,261.5,108z"/>
				</g>
			</g>
			<g>
				<g>
					<ellipse class="st42" cx="201.2" cy="195.8" rx="7.9" ry="9.9"/>
					<circle class="st43" cx="202" cy="200" r="1.6"/>
					<ellipse class="st43" cx="200" cy="194.7" rx="2.9" ry="3.7"/>
				</g>
				<g>
					<ellipse class="st42" cx="230.9" cy="195.8" rx="7.9" ry="9.9"/>
					<circle class="st43" cx="231.7" cy="200" r="1.6"/>
					<ellipse class="st43" cx="229.8" cy="194.7" rx="2.9" ry="3.7"/>
				</g>
			</g>
			<g>
				<circle class="st44" cx="216.1" cy="213.1" r="12.2"/>
				<g>
					<path class="st45" d="M218.8,207.9c1,0.6,2.2,1.3,2.6,2.5c0.5,1.6,3,0.9,2.5-0.7c-0.6-1.9-2.1-3-3.7-4
						C218.7,204.8,217.4,207,218.8,207.9L218.8,207.9z"/>
				</g>
			</g>
			<g>
				<path class="st44" d="M193.5,161c-8.6-14.1-25.9-12.6-10.9,10C185.7,167.1,189.4,163.7,193.5,161z"/>
			</g>
			<g>
				<path class="st44" d="M239.8,160.4c8.6-14.1,25.9-12.6,10.9,10C247.7,166.5,244,163.1,239.8,160.4z"/>
			</g>
		</g>
		<path class="st46" d="M134.6,337.1v-34.4c0-5.8,4.8-10.6,10.6-10.6h141.6c5.8,0,10.6,4.8,10.6,10.6v34.4
			C297.4,358.7,134.6,359,134.6,337.1z"/>
		<path class="st47" d="M277.7,245.3c0-5.8-4.8-10.6-10.6-10.6H164.8c-5.8,0-10.6,4.8-10.6,10.6v46.8h123.5V245.3z"/>
		<g>
			<path class="st44" d="M301,310.7c-0.2-3.1-0.3-6.3-0.5-9.4c-0.3-5.1-4.5-9.2-9.7-9.2H140.7c-5.3,0-9.6,4.3-9.7,9.5
				c0,2.7,0,5.4,0.3,7.2c0.7,4.2,3.6,8.5,7.8,8.6c4.9,0.1,8.4-5.3,10.4-8.8c1.1-1.9,2.8-3.4,4.9-4.2c5.6-2,8.8,3.2,10.6,7.6
				c1.7,4.2,3.8,9.1,8.8,9.1c1.8,0,3.6-0.8,4.9-1.9c3.9-3.4,4.9-8.4,7.3-12.6c1.8-3.1,4.9-6,8.5-5.8c2.5,0.1,4.6,1.6,6.5,3.2
				c2.2,1.9,4.2,3.9,6.1,6.2c3.5,4.2,6.9,9.5,12.3,10.2c1.5,0.2,3.1,0,4.2-0.9c0.7-0.5,1.2-1.3,1.6-2c1-1.8,1.7-3.8,2.1-5.8
				c0.9-4.5,3-10.7,9.1-10.5c2,0.1,3.8,0.8,5.4,2c5.7,4.2,7.1,11.7,13.2,15.6c1.8,1.1,4,1.7,6.1,1.4c8.4-1.4,7.3-14.8,14.8-16.7
				c3.9-1,7.7,2,10.2,5.1c2.5,3.2,4.8,6.9,8.5,8.4c2,0.8,4.6,0.8,5.9-2.6C300.9,313.4,301.1,312,301,310.7z"/>
		</g>
		<g>
			<path class="st44" d="M271.4,234.8H159.8c-9.3,0-10,14.2-5.5,16.9c16.9,10.1,22.4-14.2,31.9-2.2c15.8,20.2,23.1-14.4,35.8,3
				c15.9,21.9,23-22.6,38.2-3.1c4.9,6.4,15,10.1,19.6,3.7C280.7,251.7,284.2,234.8,271.4,234.8z"/>
		</g>
	</g>
	<g>
		<g>
			<path class="st48" d="M150.2,134.3c-12.4,4.1-12.1,5.9-17.5,8.2c0.9-2.8,3.3-6.1,5.6-9.2c1.2-1.5,0.8-7.8-8.6,4.6
				c-7.9,10.4-4,8.6-10.8,15.9c-0.2-9.7,0.4-12.2-0.2-14.8c-0.5-2.1-2.8-2.2-3.1,0.3c-0.6,4.9-1.4,6.4-2.2,11
				c-2.3,14,0.5,9.4-5.2,18.5c-3.1-8.6-3.2-10.9-6-14.5c-1.3-1.7-3.3-0.3-3,2.1c0,0.5,4,13.3,2.8,20.7c-8.5-14.7-9.1-8.9-8.5-7.5
				c4.8,10.5,5.2,17.9,5,18.2c-18.4-22.8-1.2,9.5-0.5,13.9c-0.3,0-0.3,0.2-1-1.1c-7.2-12.5-16.9-11.4-13.5-6.8
				c2.4,3.3,11.8,8.9,13.3,21.5c-4.4-1.2-10.4-12.7-13.6-9.7c-3.8,3.6,11.4,13.4,13.6,22c-0.3-0.2-13.6-11.7-16.6-8.7
				c-3.5,3.4,16.4,11.3,18.3,21.5c-7.4-3.1-13.6-7-14.7-3.1c-1.3,4.8,14.4,3,19.8,20.2c-0.3,0.2,0,0.3-2.1-0.5
				c-12-4.8-25.4-4.4,2.1,7.7c9,4,16.7,19.6,21.2,14.9c1.3-1.4,1-3.6-0.4-4.7c-15.1-12.4-7.8-17-1.2-34.5c1.8-4.7-8.4-1.2-12.2,12.8
				c-0.2,0.7-0.3,1.5-1,2.4c-2.4-9.2,1.2-11.8,12.7-26.6c4.8-6.3-4.7-5-16.5,13.9c-2.4-6.3,10.1-18.5,15-22.6
				c4.1-3.4-5-6.9-16.3,9.7c0.3-12,19.1-23.3,17.1-26.2c-2.2-3.2-12.4,8.5-17.9,13.8c-3-8.8,25.3-22,24.4-24.3
				c-1.9-5-23.5,13-23.6,13c-0.1-0.1-0.2-0.2-0.3-0.3c7.8-16.1,24.7-16.3,23.2-20.4c-1.1-3-8,1.4-18.2,6.6
				c6.7-11.4,22.4-12,20.3-15.3c-2.2-3.4-16.2,4.8-20.6,7.8c3.5-4.4,6.7-8.2,17.6-11.5c7.1-2.1,7.3-9.3-12.1-1.7
				c-0.1-0.1-0.2-0.2-0.2-0.2c6.2-9.1,17.2-10.8,23.9-11.8c2.4-0.4,6.6-5.1-11.2-3.4c11.6-9.5,18.1-6.6,24.5-8.9
				c2.5-0.9,1.8-6.7-9.2-5.3c2.2-1.9,4.2-2.5,9.3-4.7C155.3,135.8,153.1,133.4,150.2,134.3z"/>
			<path class="st48" d="M352,219.1c-3-3-16.2,8.6-16.6,8.7c2.1-8.6,17.3-18.4,13.6-22c-3.2-3-9.2,8.5-13.6,9.7
				c1.5-12.6,10.9-18.1,13.3-21.5c3.4-4.7-6.3-5.8-13.5,6.8c-0.7,1.3-0.8,1.1-1,1.1c0.7-4.4,17.9-36.7-0.5-13.9
				c-0.2-0.4,0.2-7.7,5-18.2c0.6-1.4,0-7.2-8.5,7.5c-1.2-7.4,2.7-20.2,2.8-20.7c0.2-2.4-1.7-3.8-3-2.1c-2.9,3.6-2.9,5.9-6,14.5
				c-5.7-9.1-2.9-4.5-5.2-18.5c-0.7-4.6-1.6-6.1-2.2-11c-0.3-2.5-2.6-2.4-3.1-0.3c-0.6,2.6,0,5.1-0.2,14.8
				c-6.8-7.3-2.9-5.6-10.8-15.9c-9.4-12.4-9.7-6.1-8.6-4.6c2.3,3,4.7,6.4,5.6,9.2c-5.4-2.3-5.2-4.1-17.5-8.2c-3-1-5.1,1.5-1.5,3
				c5.1,2.2,7.1,2.8,9.3,4.7c-11-1.3-11.7,4.4-9.2,5.3c6.4,2.3,12.9-0.5,24.5,8.9c-17.7-1.7-13.6,3-11.2,3.4
				c6.7,1.1,17.8,2.7,23.9,11.8c-0.1,0.1-0.2,0.2-0.2,0.2c-19.4-7.6-19.2-0.4-12.1,1.7c10.9,3.3,14.1,7.1,17.6,11.5
				c-4.4-3-18.4-11.2-20.6-7.8c-2.1,3.3,13.5,3.9,20.3,15.3c-10.2-5.2-17.1-9.7-18.2-6.6c-1.5,4.1,15.4,4.3,23.2,20.4
				c-0.1,0.1-0.2,0.2-0.3,0.3c-0.1-0.1-21.7-18-23.6-13c-0.9,2.3,27.4,15.5,24.4,24.3c-5.5-5.4-15.7-17.1-17.9-13.8
				c-2,2.9,16.9,14.2,17.1,26.2c-11.3-16.6-20.4-13.2-16.3-9.7c4.9,4.2,17.3,16.3,15,22.6c-11.9-18.8-21.3-20.1-16.5-13.9
				c11.4,14.8,15,17.4,12.7,26.6c-0.7-1-0.8-1.7-1-2.4c-3.7-14-13.9-17.5-12.2-12.8c6.6,17.5,13.9,22.2-1.2,34.5
				c-1.4,1.1-1.7,3.3-0.4,4.7c4.5,4.7,12.2-10.9,21.2-14.9c27.6-12.1,14.2-12.5,2.1-7.7c-2.2,0.9-1.9,0.7-2.1,0.5
				c5.4-17.2,21.2-15.3,19.8-20.2c-1.1-3.9-7.3,0-14.7,3.1C335.6,230.4,355.5,222.5,352,219.1z"/>
		</g>
	</g>
	<g>
		<g>
			<path class="st49" d="M126.4,327.3c-6.9,0.5-16.6,3.9-23,16.6c6.4-2.2,23.4,4,28.6-8.8C133.5,331.2,130.5,327,126.4,327.3z"/>
		</g>
		<g>
			<path class="st49" d="M129.9,362.3c4.8-8.7,18.5-7.8,19.1-24.9c0.1-3.7-3.3-6.6-6.9-5.7C136.3,333.1,129.2,339.2,129.9,362.3z"/>
		</g>
		<g>
			<path class="st49" d="M155.8,365.3c2.7-7.5,14.7-4.8,16-20.4c0.3-3.7-3-6.6-6.6-6C158.7,340,151.7,345,155.8,365.3z"/>
		</g>
		<g>
			<path class="st49" d="M195.9,366.3c1.9-23.9-1.3-28.9-3.8-29.8C182.1,332.9,181.1,356.9,195.9,366.3z"/>
		</g>
		<g>
			<path class="st49" d="M205.6,346.9c3.2,5.5,9.8,11.9,24.2,12.3c-2-1.8-4.5-19.1-18.6-20.7C206.5,337.9,203.3,342.9,205.6,346.9z"
				/>
		</g>
		<g>
			<path class="st49" d="M305.2,323.7c6.9-1,17,0.1,26,11.1c-6.7-0.7-22,9.1-29.8-2.3C299.1,329,301.1,324.3,305.2,323.7z"/>
		</g>
		<g>
			<path class="st49" d="M302.3,362.3c-4.8-8.7-18.5-7.8-19.1-24.9c-0.1-3.7,3.3-6.6,6.9-5.7C295.9,333.1,303,339.2,302.3,362.3z"/>
		</g>
		<g>
			<path class="st49" d="M274.3,363.5c-2.5-7.5-14.6-5.1-15.6-20.8c-0.2-3.7,3.1-6.6,6.8-5.8C271.9,338.1,278.8,343.3,274.3,363.5z"
				/>
		</g>
		<g>
			<path class="st49" d="M239.2,337.2c6.4,1.8,11.1,18.7,3.7,30C230,343.4,231.9,335.1,239.2,337.2z"/>
		</g>
	</g>
</g>
</svg>
