<?xml version="1.0" encoding="utf-8"?>
<!-- Generator: Adobe Illustrator 22.0.0, SVG Export Plug-In . SVG Version: 6.00 Build 0)  -->
<svg version="1.1" id="Calque_1" xmlns="http://www.w3.org/2000/svg" xmlns:xlink="http://www.w3.org/1999/xlink" x="0px" y="0px"
	 viewBox="0 0 432 432" style="enable-background:new 0 0 432 432;" xml:space="preserve">
<style type="text/css">
	.st0{fill:#066938;}
	.st1{fill:#9F1E29;}
	.st2{fill:#571419;}
	.st3{fill:none;}
	.st4{fill:#C68448;}
	.st5{fill:#8C633A;}
	.st6{fill:#D79A5D;}
	.st7{fill:#A5C0DF;}
	.st8{fill:#36502D;}
	.st9{fill:#C8261D;}
	.st10{fill:#808181;}
	.st11{fill:#519C37;}
	.st12{fill:#FCEE69;}
	.st13{fill:#EC8C37;}
	.st14{fill:#5877B1;}
	.st15{fill:#7B1523;}
	.st16{fill:#4F0D1C;}
	.st17{fill:#BF333D;}
	.st18{fill:#E7373D;}
	.st19{fill:#972021;}
	.st20{fill:#F2F2F2;}
	.st21{fill:#F3D4AA;}
	.st22{fill:#A67D52;}
	.st23{fill:#B59063;}
	.st24{fill:#020203;}
	.st25{fill:#FFFFFF;}
	.st26{fill:#E7E6E6;}
	.st27{fill:#9A9999;}
	.st28{fill:#B4B4B4;}
	.st29{fill:#C9913E;}
	.st30{fill:#D6A14D;}
	.st31{fill:#E2A1BC;}
	.st32{fill:#C1292E;}
	.st33{fill:#82171C;}
	.st34{fill:#CDCCCC;}
	.st35{fill:#D06C5D;}
	.st36{fill:#79986F;}
	.st37{fill:#DAA405;}
	.st38{fill:#EDCBA9;}
	.st39{fill:#405045;}
	.st40{fill:#8B2F2F;}
	.st41{fill:#1D2E1C;}
	.st42{fill:#D4BB78;}
	.st43{fill:#3C1014;}
	.st44{fill:#731633;}
	.st45{fill:#3F0D26;}
	.st46{fill:#E3EBF8;}
	.st47{fill:#D2DFEF;}
	.st48{fill:#B88E5C;}
	.st49{fill:#A81735;}
	.st50{fill:#4AA8A8;}
	.st51{fill:#94B947;}
	.st52{fill:#A8C4D3;}
	.st53{fill:#9F1A18;}
	.st54{fill:#4F6325;}
	.st55{fill:#BAC463;}
	.st56{fill:#8C694B;}
	.st57{fill:#8A9A66;}
	.st58{fill:#DDDDC3;}
	.st59{fill:#3F668A;}
	.st60{fill:#1B1B1B;}
	.st61{fill:#FFF0BA;}
	.st62{fill:#C69C6C;}
	.st63{fill:#603914;}
	.st64{fill:#114923;}
	.st65{fill:#961F27;}
	.st66{fill:#BB870E;}
	.st67{fill:#C51720;}
	.st68{fill:#449494;}
	.st69{fill:#417675;}
	.st70{fill:#ABCFAF;}
	.st71{fill:#66B2B0;}
	.st72{fill:#F9B03D;}
	.st73{fill:#754D24;}
	.st74{fill:#F6F6F6;}
	.st75{fill:#BA181A;}
	.st76{fill:#AD191C;}
	.st77{fill:#161515;}
	.st78{fill:#1E1E1C;}
	.st79{fill:#0E472B;}
	.st80{fill:#D3C29D;}
	.st81{fill:#CC2717;}
	.st82{fill:#A81916;}
	.st83{fill:#805129;}
	.st84{fill:#F39323;}
	.st85{fill:#B56B20;}
	.st86{fill:#E52629;}
	.st87{fill:#7B9EC7;}
	.st88{fill:#48515A;}
	.st89{fill:#DED3C6;}
	.st90{fill:#3B444E;}
	.st91{fill:#6189B1;}
	.st92{fill:#97B8D7;}
	.st93{fill:#715038;}
	.st94{fill:#A3282E;}
	.st95{fill:#110506;}
	.st96{fill:#F3E4D4;}
	.st97{fill:#F4DCC9;}
	.st98{fill:#676767;}
	.st99{fill:#E0EDF3;}
	.st100{fill:#90443F;}
	.st101{fill:#989389;}
	.st102{fill:#F0DABE;}
	.st103{fill:#4F382A;}
	.st104{fill:#009245;}
	.st105{fill:#064928;}
</style>
<g>
	<ellipse class="st102" cx="239.5" cy="184.7" rx="74" ry="69.6"/>
	<g>
		<path class="st1" d="M307.4,125.1c-7.6-20.2-61.1-77.7-117.2-55.2s-70.4,65.4-70.9,91.6s-2.9,56-7,64.5c-4.2,8.6,8,11.8,15.4,1.8
			c7.4-9.9,15.8-27.7,16.6-47s115.9-49,115.9-49L307.4,125.1z"/>
		<path class="st26" d="M139.2,172.8c-0.3-13.8-0.8-21.6,17.9-27.1c18.7-5.5,30.6-22.2,42.1-23.7s34.2-11.9,40.3-11.9
			c6.1,0,47.9,10.7,56.2,9.6c8.3-1.1,23.5-0.3,24.3,4.4c0.8,4.7,5.4,29.9-1.8,30.3c-7.2,0.4-36.2-7.5-53.6-3.1
			c-17.4,4.4-29.2,8.6-37,11.3c-7.7,2.7-30.2-3.8-40.7,0.5c-10.4,4.3-32.4,36.4-38.3,35.1C142.9,197,139.3,178.3,139.2,172.8z"/>
		<path class="st26" d="M85.7,218.4c5.5-4.8,25.7-6.4,28.6,1.2c2.9,7.7,12.2,9.2,17,9.2s8,25.7-1,28.5c-9,2.8-20,19.6-33.2,17.3
			c-13.2-2.3-25.5-20.4-22.8-29.5S68.2,233.9,85.7,218.4z"/>
	</g>
	<g>
		<g>
			<path class="st26" d="M162.2,217.5c-6.1,34-15.1,94.6,23.7,119.9c38.8,25.3,87.2,33.1,90.8,28.5c3.6-4.5,0-9.5,5.8-10.6
				c5.8-1.1,16.1,5.4,22.6,5c6.5-0.4,27.5,7.4,31.9,4.1c4.4-3.3,0.1-34.1,3-34.8c2.9-0.8,12.1,2.6,14.1-0.4s-13.5-23.3-3.4-46.1
				c10-22.7,9.5-38.5,1.6-50.6c-7.9-12.1-31.6-34.9-36.2-38.7c-6.5-4.9-11.4,13.5-25.9,10.9c-14.5-2.6-32.9-12.8-46.4-10.2
				c-13.5,2.6-30.8,29.5-47.6,30S165.5,207.1,162.2,217.5z"/>
			<path class="st20" d="M204.4,315.3c-0.9-1-2.1-1.4-3.4-1.3c-1.4,0.1-2.4,1-2.9,2.3c-0.5,1.4-0.5,2.8-0.2,4.1
				c0.6,2.5,1.8,4.5,3.9,6.1c1.8,1.4,3.8,2,6,1.6c2-0.3,3.8-0.9,5.4-2.1c2-1.5,3-3.6,3.4-6c0.5-3.6-0.4-7-1.9-10.2
				c-1.8-3.8-4.6-6.8-7.9-9.4c-2.9-2.2-6-4-9.2-5.7c-2.5-1.3-5.1-2.6-7.6-3.9c-0.2-0.1-0.3-0.1-0.6-0.3c0.2,0.4,0.3,0.7,0.4,1
				c0.6,1.2,1.1,2.4,1.3,3.7c0.8,4.6-1.2,8.9-5.2,11.3c-1.8,1.1-3.8,1.9-6,1.9c-5.2-0.1-8.8-5.7-6.7-10.4c0.9-1.9,2.6-3,4.6-3
				c1.9,0,3.5,1.5,3.7,3.3c0.1,1-0.2,1.8-1,2.4c-0.7,0.6-1.5,0.8-2.4,0.3c-0.4-0.2-0.9-0.6-1.1-1c-0.3-0.5-0.4-1-0.6-1.6
				c-0.4,0.1-0.5,0.4-0.6,0.8c-0.8,1.7-0.4,3.3,0.7,4.7c1.2,1.6,2.9,2.2,4.8,1.7c3.7-0.9,6.2-3.6,6.9-7.5c0.6-3.5-0.6-6.4-2.8-9
				c-0.6-0.7-1.4-1.3-2.2-1.9c-0.5-0.4-1.1-0.7-1.6-1.1c-8-5.6-12.5-13.4-14.2-22.9c-0.8-4.7-0.6-9.3,0.2-14
				c0.2-1.1,0.6-2.1,0.9-3.1c0.1-0.3,0.4-0.7,0.6-0.9c0.2-0.1,0.5-0.2,0.8-0.1c0.2,0.1,0.2,0.4,0.3,0.6c0,0.1,0,0.3-0.1,0.5
				c-1.3,4.2-1.5,8.5-1.2,12.8c0.4,6.5,2.4,12.4,6.4,17.6c3.1,4.1,7.1,6.8,12.1,8c1.9,0.5,3.9,0.6,5.8,0.1c3.4-0.9,5.7-2.9,6.5-6.4
				c0.6-2.5,0.4-5-0.4-7.5c-0.5-1.5-1.4-2.8-2.8-3.8c-1.8-1.2-4.4-1.3-6.2-0.1c0.2,0.1,0.4,0.1,0.6,0.1c1.7,0.3,2.9,1.6,2.9,3.4
				c0.1,2-1.3,4.2-3.2,4.9c-3,1.1-6.2-1.1-6.3-4.4c-0.1-2.4,0.9-4.3,2.6-5.9c4.3-3.7,10.7-3,14,1.6c2.1,2.9,2.7,6.2,2.5,9.7
				c-0.2,3-1.4,5.6-3.5,7.8c-1.4,1.5-3.2,2.5-5.2,3.1c-0.1,0-0.3,0.1-0.4,0.1c-0.1,0-0.1,0.1-0.2,0.2c1.1,0.1,2,0,3-0.1
				c6-0.7,10.7-3.6,14.2-8.4c2.4-3.3,4.3-6.8,5.2-10.8c0.8-3.5,1-7-0.2-10.4c-0.9-2.5-2.3-4.6-4.4-6.3c-1.6-1.3-3.4-2.1-5.6-2
				c-1.9,0.1-3.2,1.1-4.3,2.8c0.3-0.1,0.5-0.1,0.7-0.1c1.4-0.3,2.9,0.2,3.6,1.4c0.8,1.3,0.7,2.5,0,3.8c-1.1,1.8-3.3,2.7-5.2,2.2
				c-2-0.5-3.5-2.3-3.6-4.4c-0.1-1.2,0.1-2.3,0.5-3.4c1.4-3.1,3.5-5.4,6.9-6.1c1.6-0.3,3.2-0.2,4.7,0.2c2.4,0.7,4.5,2,6.3,3.9
				c2.6,2.7,4.4,5.9,5,9.6c0.5,2.8,0.3,5.5-0.4,8.3c0,0.2-0.1,0.3-0.1,0.5c0,0.1,0,0.1,0,0.3c0.2-0.3,0.4-0.6,0.6-0.8
				c2.1-3,4.9-5,8.6-5.7c3-0.6,5.8,0,8.3,1.6c2.4,1.5,3.5,3.9,4,6.6c0.2,1.2,0.1,2.5-0.2,3.7c-0.7,2.8-2.5,4.8-5.1,5.8
				c-2.1,0.8-4.1,0.5-6-0.8c-2.2-1.5-2.6-4.5-0.9-6.6c1-1.2,2.2-1.6,3.8-1.3c1.3,0.3,2.3,1,2.7,2.3c0.2,0.6,0.2,1.2,0.2,1.9
				c0.4-0.1,0.7-0.5,0.9-0.8c1-1.6,1.2-3.3,0.5-5.1c-1-2.7-3.4-3.9-6-4c-2.1-0.1-4,0.6-5.6,1.9c-2.8,2.2-4.3,5.1-4.4,8.7
				c-0.1,2.5,0.2,5,1,7.4c0.8,2.3,2,4.2,3.7,5.9c1.5,1.5,3.1,2.7,4.8,3.8c3.1,2,6.3,3.9,9.4,5.9c3,2,5.9,4,8.4,6.5
				c1.9,1.9,3.6,3.9,4.9,6.4c0.1,0.1,0.1,0.2,0.4,0.5c-0.1-1.5-0.2-2.8-0.3-4.1c-0.5-7.8,0.4-15.3,3.4-22.5
				c1.6-3.8,3.9-7.2,6.8-10.1c1.1-1.1,2.2-2.1,3.2-3.1c0.3-0.3,0.6-0.6,0.7-0.9c2-4.4,3.1-8.9,2.7-13.7c-0.3-4.6-1.8-8.7-5.1-12.1
				c-1.6-1.6-3.4-2.6-5.5-3.1c-4.4-0.9-9.1,2.3-9.9,6.7c-0.4,2.3,0.6,4.4,2.6,5.3c1.4,0.7,2.6,0.4,3.7-0.9c-0.3-0.1-0.5-0.2-0.8-0.3
				c-1.4-0.6-1.9-2.2-1.2-3.5c1-1.9,3.4-2.3,4.9-0.8c1,0.9,1.4,2.1,1.1,3.4c-0.6,2.7-2.2,4.5-4.8,5.4c-2.5,0.9-4.8,0-6.6-1.7
				c-2.6-2.5-3.2-5.5-2.2-8.9c2-6.4,8.9-9.9,15.3-7.9c4.4,1.4,7.5,4.4,9.6,8.4c2.2,4.1,2.8,8.6,2.4,13.2c-0.2,2.4-0.7,4.7-1.5,7
				c0,0.1,0,0.2-0.1,0.5c0.2-0.1,0.3-0.1,0.4-0.1c5.3-3.4,10.4-7.1,15.1-11.2c3.7-3.3,6.9-7,9.5-11.3c1.9-3.2,3.2-6.7,3.5-10.5
				c0.2-2.3,0.1-4.5-0.7-6.7c-0.4-1.2-1.1-2.3-2.2-3.1c-0.7-0.5-1.5-0.8-2.5-0.7c-2.2,0.2-4.1,1.2-5.4,2.9c-0.9,1.2-0.8,2.5,0.1,3.8
				c0,0,0.1,0,0.1-0.1c0.4-2.7,3.6-3.9,5.7-2.2c1.3,1,1.5,2.6,0.5,3.9c-1.7,2.1-3.9,2.9-6.5,2.5c-2.2-0.3-3.9-2.3-4.4-4.6
				c-0.4-1.9,0-3.7,1.2-5.2c2.8-3.3,6.5-4.6,10.7-3.8c2.4,0.4,4.1,2,5.3,4c1.2,2,1.7,4.1,1.9,6.4c0.3,4.2-0.7,8.2-2.4,12
				c-2.5,5.5-6.2,10.1-10.7,14.1c-4.1,3.6-8.5,6.7-13.2,9.5c-0.3,0.2-0.6,0.4-0.9,0.5c0,0-0.1,0.1-0.2,0.2c1,0,2-0.1,2.9,0
				c3.5,0.3,6.7,1.3,9.4,3.5c2.3,1.9,3.6,4.4,4,7.4c0.4,3-0.2,5.8-1.9,8.4c-1.4,1.9-3.1,3.3-5.5,3.8c-4.8,1-9.5-2.9-9.2-7.8
				c0-0.5,0.1-0.9,0.2-1.4c0.7-3,3.2-4.7,6.3-4.2c0.6,0.1,1.2,0.3,1.8,0.5c3.1,1.4,3.7,5.1,1.1,7.4c-0.6,0.5-1.2,0.8-1.9,1.3
				c0.2,0,0.4,0.1,0.5,0c2.4-0.4,4.2-2.4,4.3-5.1c0.1-1.7-0.2-3.4-1-4.9c-0.8-1.6-2-2.7-3.6-3.4c-3.9-1.8-7.8-1.8-11.8-0.3
				c-2.4,0.9-4.3,2.4-6,4.2c-4.2,4.2-6.8,9.3-8.3,15c-1.4,5.3-1.9,10.6-1.8,16c0,2.6,0,5.1,0,7.7c0,0.3,0,0.6,0,1
				c0.1-0.1,0.2-0.2,0.3-0.2c2.7-5.1,6.6-9.2,11-12.8c5.3-4.3,11.2-7.8,17.8-10c3.8-1.2,7.7-1.7,11.7-1.4c2.4,0.2,4.7,0.9,7,1.7
				c0.3,0.1,0.5,0.2,0.8,0.3c0.1-0.4-0.1-0.7-0.2-1c-1.3-2.9-2.3-5.9-2.9-9.1c-1.1-5.5-0.8-10.9,0.8-16.3c0.2-0.8,0.4-1.6,0.7-2.4
				c0.8-2.8,2.1-5.3,3.7-7.7c2.6-4,5.6-7.6,8.7-11.2c2.2-2.5,4.4-5.1,6.3-7.8c2.3-3.2,4.1-6.7,5-10.6c0.4-1.8,0.6-3.6-0.1-5.4
				c-0.7-1.8-2-3-3.9-3.3c-1.1-0.2-2.1,0.1-3.2,0.7c0.3,0.1,0.4,0.2,0.5,0.2c2.1,0.5,2.9,3,1.7,4.8c-1,1.4-3,2.2-4.6,1.7
				c-1.6-0.5-2.4-1.8-2.6-3.3c-0.4-2.1,0.5-3.7,2.1-5c1.7-1.5,3.8-2.1,6.1-2c3.3,0.2,5.6,1.9,7,4.8c1.2,2.5,1.3,5.1,0.6,7.8
				c-1.1,4.5-3.2,8.6-6.2,12.1c-2.3,2.8-4.7,5.4-7.1,8.1c-0.3,0.4-0.7,0.8-0.9,1.3c0.3-0.1,0.6-0.3,0.9-0.4
				c3.2-1.7,6.5-2.5,10.1-2.2c4.1,0.4,7.7,2.1,10.2,5.5c2.4,3.3,2.9,7,1.8,10.9c-0.7,2.4-1.8,4.5-3.7,6.2c-1.7,1.5-3.6,2.3-5.9,2.2
				c-4.7-0.3-8.3-5-6.5-9.7c0.9-2.3,2.8-3.6,5.1-3.4c1.7,0.1,2.9,1.1,3.5,2.7c0.6,1.6,0.3,3-0.8,4.3c-1.2,1.3-2.8,1.7-4.5,1
				c-0.1,0-0.2,0-0.3-0.1c0,0.1,0,0.2,0,0.3c1.3,2.3,4.1,3,6.2,1.5c1.8-1.2,2.8-3,3.2-5.1c1.1-6-2.9-10.4-7.2-11.6
				c-2.4-0.7-4.8-0.3-7.2,0.6c-2.9,1.1-5.4,2.8-7.6,5c-3.8,3.7-6.5,8.1-7.7,13.3c-1.1,5.2-0.8,10.2,0.7,15.3c1,3.5,2.4,6.8,4.1,10
				c0.1,0.2,0.3,0.5,0.6,0.7c0-0.6,0-1.1,0-1.7c0-3.8,1.1-7.3,3.3-10.4c3.3-4.6,7.6-7.6,13.2-8.6c1.6-0.3,3.2-0.2,4.8,0.1
				c2.3,0.5,4,1.9,5.4,3.8c2.6,3.6,2.4,9-0.4,12.4c-1.3,1.6-2.9,2.4-5,2.2c-3-0.3-4.6-2.9-4.7-4.9c-0.2-2,1.4-3.9,3.3-4.1
				c1.2-0.2,2.4,0.5,3,1.6c0.6,1.2,0.4,2.5-0.5,3.4c-0.6,0.6-1.3,0.7-2.1,0.7c0.8,0.7,1.5,0.7,2.3,0.4c0.5-0.2,1.1-0.6,1.4-1
				c1.8-2.1,2.4-4.5,1.5-7.1c-0.9-2.6-2.7-4.2-5.4-4.7c-2.2-0.4-4.4,0-6.4,0.7c-6.5,2.4-10.4,7-11.4,13.9c-0.3,2.2-0.3,4.5,0.2,6.7
				c0.1,0.4,0.3,0.8,0.5,1.1c4,5.4,8.8,10.1,14.2,14c2.4,1.7,4.9,3.1,7.7,3.9c0.6,0.2,1.2,0.2,1.7,0.2c0.2,0,0.4,0,0.6,0
				c0.7,0.2,0.9,0.8,0.4,1.3c-0.6,0.7-1.4,0.9-2.2,0.8c-1.2-0.2-2.5-0.3-3.7-0.7c-2.7-0.9-5.3-2.3-7.6-3.9c-4.8-3.2-9-7-12.7-11.5
				c-0.2-0.2-0.4-0.4-0.6-0.7c-0.1,0.3-0.1,0.5-0.1,0.7c-0.2,3.1-1.3,6-3.2,8.4c-2,2.5-4.6,4.3-7.8,4.7c-5.1,0.7-10.3-2.1-11.4-7.8
				c-0.6-2.8-0.1-5.3,1.9-7.5c1.8-1.9,4.8-2.4,7-1.2c1.3,0.8,2.3,1.8,2.3,3.5c0,0.9-0.4,1.6-1,2.3c-0.6,0.6-1.4,0.8-2.2,0.7
				c-1.8-0.3-3.1-2.6-2.2-4.3c0.1-0.2,0.1-0.3,0.3-0.7c-0.5,0.2-0.9,0.3-1.2,0.5c-1,0.6-1.7,1.4-2,2.5c-0.5,1.7-0.4,3.3,0.2,5
				c1.6,4.1,5.6,5,8.6,4.1c4.2-1.3,6.5-4.3,7.2-8.5c0.7-4-0.8-7.3-4-9.8c-1.5-1.2-3.3-1.6-5.1-2c-3-0.7-6.1-0.6-9.1,0.1
				c-11.8,2.4-21.4,8.4-29.1,17.6c-2.3,2.8-4,5.9-5.3,9.3c-0.1,0.3-0.2,0.5-0.2,0.8c0,0.1,0,0.2,0.1,0.3c0.2-0.2,0.4-0.4,0.6-0.6
				c3.2-3.3,7-5.3,11.5-5.9c4.7-0.6,8.9,0.7,12.7,3.6c2.4,1.9,4.4,4.2,5.7,7.1c0.9,1.9,1.8,3.7,2.7,5.5c2.6,5,6.7,8.3,12.1,10.2
				c1.1,0.4,2.2,0.6,3.3,0.8c2.4,0.3,4.6-0.3,6.3-2.1c2-2,3.1-4.4,3.4-7.2c0.1-1-0.1-1.9-0.5-2.8c-0.3-0.6-0.8-1.1-1.7-1.4
				c0.1,0.3,0.2,0.4,0.2,0.6c0.6,1.4,0.3,2.6-0.6,3.7c-0.8,0.9-1.8,1.3-3,0.9c-1.2-0.4-1.9-1.2-2.2-2.5c-0.1-0.5-0.1-1,0-1.4
				c0.5-2,1.7-3.4,3.7-4c1.9-0.5,3.6-0.2,5.1,1.3c1.1,1.2,1.7,2.5,1.8,4.1c0.1,1.2,0.1,2.5-0.2,3.7c-0.6,2.3-1.6,4.4-3,6.3
				c-2.7,3.4-6.2,4.7-10.4,3.9c-7.2-1.5-12.5-5.6-16.1-12c-0.4-0.8-0.8-1.6-1.2-2.4c0,0,0,0-0.1-0.1c-0.1,0.4-0.2,0.7-0.2,1
				c-0.9,3.5-3.1,5.8-6.6,6.7c-0.8,0.2-1.8,0.2-2.6,0c-3-0.6-4.4-4.4-2.5-6.8c0.9-1.2,2.5-1.7,3.9-1.3c1.4,0.5,2.4,1.8,2.4,3.3
				c0,0.3,0,0.5,0,0.9c0.6-0.4,1-0.9,1.4-1.4c1.1-1.8,1.4-3.7,1.2-5.8c-0.4-3.3-2.1-5.8-4.8-7.6c-3.7-2.4-7.8-3.1-12.1-1.8
				c-5.2,1.5-8.9,4.8-11.4,9.6c-0.2,0.4-0.3,0.7-0.4,1.1c-1,3-2.5,5.6-4.5,8.1c-3,3.6-6.7,6.1-11.2,7.2c-4.9,1.3-9.9,1.4-14.8-0.1
				c-3.9-1.2-7.3-3.1-10.4-5.8c-0.6-0.6-1.2-1.2-1.7-1.8c-0.1-0.2-0.3-0.3-0.4-0.5c-0.4-0.6-0.4-1,0-1.3c0.3-0.3,0.6-0.1,1.1,0.4
				c1.9,2.2,4.3,3.8,6.9,5.1c5.4,2.7,11,3.4,16.9,2.1c6.1-1.3,10.6-4.9,13.5-10.3c1.8-3.3,2.7-7,2.8-10.8c0.1-3.1-0.2-6.2-1.3-9.2
				c-0.6-1.7-1.4-3.2-2.5-4.6c-0.6-0.7-1.3-1.4-2-1.9c-1.5-1.2-3.2-1.2-4.8-0.1c-2,1.3-3,3.2-3.1,5.5c-0.1,1.9,1.1,3.4,3,3.5
				c0.1,0,0.2,0,0.3,0c0.1-0.1,0.1-0.1,0.2-0.2c-0.2-0.2-0.5-0.3-0.7-0.5c-1.3-1.4-1.4-3.4-0.4-4.8c1-1.5,2.9-2,4.7-1.2
				c1.8,0.8,3,2.9,2.7,5c-0.4,3.1-3.1,5.5-6.3,5.7c-4.6,0.2-8-3.4-7.4-8c0.5-3.9,2.5-6.8,6.2-8.5c1.1-0.5,2.2-0.7,3.4-0.7
				c-0.2-0.5-0.6-0.6-0.9-0.8c-3.9-2.5-7.7-5.1-11.8-7.2c-2.4-1.2-4.6-2.6-6.6-4.3c-5.1-4.3-7.4-9.8-7.2-16.4c0-0.5,0-1.1,0-1.6
				c0,0,0,0-0.1-0.1c-0.1,0.3-0.3,0.5-0.4,0.8c-2.7,5-6.3,9.3-11.3,12.2c-2.7,1.6-5.7,2.4-8.9,2.7c-1,0.1-2,0-3,0c0,0.1,0,0.1,0,0.2
				c0.4,0.2,0.7,0.4,1.1,0.5c3.3,1.5,6.5,3.2,9.6,5.1c3.5,2.1,6.7,4.6,9.2,7.8c2.9,3.6,4.8,7.7,5.5,12.3c0.4,2.9,0.2,5.8-1.1,8.5
				c-1.1,2.3-2.8,4.1-5,5.3c-2,1.1-4.1,1.8-6.4,2c-4.2,0.4-7.6-1.2-10.3-4.3c-1.9-2.2-3-4.8-3.3-7.7c-0.2-1.4,0-2.7,0.4-4
				c1.1-3.6,4.3-5.6,8.2-4.9c3.6,0.6,6.4,4,6.3,7.6c-0.1,1.8-0.9,3.3-2.5,4.3c-1.4,0.8-2.8,0.9-4.1-0.1c-1.3-0.9-1.8-2.3-1.6-3.8
				c0.3-1.6,1.2-2.6,2.7-3.1c0.2-0.1,0.5-0.1,0.7-0.2C204.3,315.4,204.4,315.3,204.4,315.3z"/>
		</g>
		<g>
			<g>
				<path class="st20" d="M246.3,160.2c-2.2-9.8,3.2-16.8,10.7-16.6c7.5,0.2,23.7,2.4,26.6,3.3c2.9,0.9,16,6.4,14.9,11.3
					c-1.1,4.8-9.8-1.3-22.2-1.4C263.8,156.7,248.6,170.3,246.3,160.2z"/>
				<path class="st20" d="M223.5,163.6c-2.8-9.6-10.9-13.2-17.4-9.3s-19.6,13.6-21.6,15.8c-2.1,2.2-10.8,13.4-7.6,17.1
					c3.3,3.7,7.9-5.9,18.8-12C206.4,169,226.3,173.5,223.5,163.6z"/>
			</g>
			<g>
				<path d="M269.5,163.5c1.1,0.2,2.2,0.4,3.3,0.7c1.7,0.5,3.4,1,5.1,1.6c2.2,0.7,4.3,0.9,6.6,0.2c0.8-0.2,1.6-0.3,2.1,0.4
					c0.6,0.7,0.3,1.5-0.1,2.2c-0.5,1-1.3,1.7-2.3,2.2c-1.7,0.9-3.5,1.2-5.4,1.1c-2-0.2-3.9-0.5-5.9-0.8c-2.8-0.4-5.4-0.1-8.1,0.8
					c-2,0.7-3.5,2.2-4.9,3.6c-0.3,0.3-0.7,0.6-1.1,0.9c-0.2,0.2-0.3,0.4-0.5,0.6c-0.1,0.1-0.4,0.3-0.5,0.2c-0.2-0.1-0.4-0.3-0.4-0.5
					c0-0.9-0.2-1.9,0.3-2.8c1.6-3.1,3.6-5.9,6.4-8.1C265.9,164.3,267.5,163.7,269.5,163.5z"/>
				<path d="M201.3,179.7c-0.8,0.8-1.6,1.5-2.3,2.4c-1.2,1.4-2.3,2.8-3.4,4.2c-1.4,1.8-3.1,3.1-5.4,3.8c-0.8,0.2-1.5,0.6-1.5,1.5
					c-0.1,0.9,0.6,1.4,1.3,1.8c1,0.5,2,0.6,3.1,0.5c1.9-0.2,3.6-0.9,5.1-2.1c1.5-1.3,3-2.6,4.5-3.9c2.1-1.8,4.4-3.1,7.2-3.8
					c2.1-0.5,4.1-0.1,6.1,0.3c0.4,0.1,0.9,0.1,1.4,0.2c0.3,0,0.5,0.2,0.8,0.2c0.2,0,0.5,0,0.5-0.1c0.1-0.2,0.2-0.5,0.1-0.6
					c-0.5-0.8-0.9-1.6-1.8-2.1c-3.1-1.7-6.3-2.9-9.8-3.2C204.7,178.3,203,178.7,201.3,179.7z"/>
			</g>
			<g>
				<path d="M260.3,213c-7.4,5.7-16.8,7.8-25.9,5.8c-1.6-0.3-2.3,2.1-0.7,2.4c10.1,2.2,20.2-0.1,28.3-6.5
					C263.4,213.8,261.6,212,260.3,213L260.3,213z"/>
			</g>
			<g>
				<path class="st20" d="M253.9,191.6c5.2-3.5,15.3-11.9,22.6-11.6c7.3,0.3,27.5-0.7,31-7.1c1.3-3.8,0.7,8.5,3.9,7
					c3.1-1.5,6.6-12,7.3-15.9c0.8-3.9,10.8,3.4,9.5,15s-2.3,29-31.5,35.3c-29.2,6.3-45.8-15-46.6-16
					C251.8,195.4,253.9,191.6,253.9,191.6z"/>
				<path class="st20" d="M232,194.7c-6.3-0.5-19.1-2.9-25.4,0.8c-6.3,3.8-24.3,12.7-30.5,8.8c-3-2.7,3.5,7.8,0,8
					c-3.5,0.2-11.6-7.3-14.1-10.3c-2.5-3-7.8,8.2-1,17.7s16.1,24.2,44.7,15.5s32.8-35.4,32.9-36.6C235.7,197,232,194.7,232,194.7z"
					/>
			</g>
			
				<ellipse transform="matrix(0.9651 -0.262 0.262 0.9651 -42.7351 70.1575)" class="st21" cx="241.7" cy="195.3" rx="16.3" ry="10.2"/>
		</g>
	</g>
</g>
</svg>
